<?xml version="1.0" encoding="UTF-8" standalone="no"?>
<!-- Created with Inkscape (http://www.inkscape.org/) -->

<svg
   version="1.1"
   id="svg2"
   width="8.1146288in"
   height="3.9363256in"
   viewBox="0 0 779.00436 377.88727"
   sodipodi:docname="ico.svg"
   inkscape:version="1.1 (c4e8f9ed74, 2021-05-24)"
   xmlns:inkscape="http://www.inkscape.org/namespaces/inkscape"
   xmlns:sodipodi="http://sodipodi.sourceforge.net/DTD/sodipodi-0.dtd"
   xmlns:xlink="http://www.w3.org/1999/xlink"
   xmlns="http://www.w3.org/2000/svg"
   xmlns:svg="http://www.w3.org/2000/svg">
  <defs
     id="defs6">
    <inkscape:path-effect
       effect="mirror_symmetry"
       start_point="651.99362,150.59606"
       end_point="651.99362,343.58529"
       center_point="651.99362,247.09067"
       id="path-effect7940"
       is_visible="true"
       lpeversion="1.1"
       mode="free"
       discard_orig_path="false"
       fuse_paths="false"
       oposite_fuse="false"
       split_items="false"
       split_open="false" />
    <inkscape:path-effect
       effect="mirror_symmetry"
       start_point="651.99362,10.242164"
       end_point="651.99362,366.64312"
       center_point="651.99362,188.44264"
       id="path-effect7477"
       is_visible="true"
       lpeversion="1.1"
       mode="free"
       discard_orig_path="false"
       fuse_paths="false"
       oposite_fuse="false"
       split_items="false"
       split_open="false" />
  </defs>
  <sodipodi:namedview
     id="namedview4"
     pagecolor="#ffffff"
     bordercolor="#666666"
     borderopacity="1.0"
     inkscape:pageshadow="2"
     inkscape:pageopacity="0.0"
     inkscape:pagecheckerboard="0"
     showgrid="false"
     inkscape:zoom="1.1083899"
     inkscape:cx="348.25291"
     inkscape:cy="183.59966"
     inkscape:window-width="1770"
     inkscape:window-height="1056"
     inkscape:window-x="150"
     inkscape:window-y="0"
     inkscape:window-maximized="1"
     inkscape:current-layer="layer1"
     showguides="true"
     inkscape:guide-bbox="true"
     width="801px"
     units="in"
     fit-margin-top="0"
     fit-margin-left="0"
     fit-margin-right="0"
     fit-margin-bottom="0"
     inkscape:document-units="in" />
  <g
     inkscape:groupmode="layer"
     inkscape:label="Image"
     id="g8"
     sodipodi:insensitive="true"
     style="display:none;opacity:1"
     transform="translate(-0.86098201,-0.48653322)">
    <image
       width="800"
       height="388"
       preserveAspectRatio="none"
       style="image-rendering:optimizeSpeed"
       xlink:href="Ico-logo.jpg"
       id="image10" />
  </g>
  <g
     inkscape:groupmode="layer"
     id="layer1"
     inkscape:label="logo"
     style="display:inline;opacity:1"
     transform="translate(-0.86098201,-0.48653322)">
    <path
       style="opacity:1;fill:#000000;fill-opacity:1;fill-rule:evenodd;stroke:none;stroke-width:1px;stroke-linecap:butt;stroke-linejoin:miter;stroke-opacity:1"
       d="m 121.24334,68.2736 8.27718,-48.477178 c 0,0 -39.480732,-5.911819 -60.909205,-8.535891 C 43.989804,8.2454478 2.6739193,0.48653322 2.6739193,0.48653322 L 0.86098201,51.889628 11.97437,59.10438 C 10.701237,73.117798 -5.8723679,307.08644 101.39106,378.37379 73.648174,278.82736 72.115138,169.27209 106.08887,75.993153 L 121.24334,68.2736"
       id="path884"
       sodipodi:nodetypes="ccscccccc" />
    <path
       style="fill:#000000;fill-opacity:1;fill-rule:evenodd;stroke:none;stroke-width:1px;stroke-linecap:butt;stroke-linejoin:miter;stroke-opacity:1"
       d="m 440.00741,8.5268328 -52.79098,9.7352142 -5.3259,14.276535 C 278.88898,37.956011 208.33327,127.71786 207.20463,209.20209 206.05958,291.87126 246.33068,366.14814 426.67452,369.33871 322.17557,347.73184 290.98218,276.54628 298.55847,225.08643 c 6.74749,-45.83054 42.65859,-78.72487 92.3821,-82.86603 6.63537,11.49279 6.63537,11.49279 6.63537,11.49279 l 52.28778,-2.55537 z"
       id="path857"
       sodipodi:nodetypes="cccscscccc" />
    <path
       id="path2545"
       style="fill:#000000;fill-opacity:1;fill-rule:evenodd;stroke:none;stroke-width:1px;stroke-linecap:butt;stroke-linejoin:miter;stroke-opacity:1"
       d="m 582.61133,10.242188 -2.66016,65.158203 C 525.41441,128.12213 515.36105,226.4657 530.49023,278.73633 c 15.12918,52.27063 61.27909,72.31316 84.26563,81.5 -2.92742,1.16633 -6.49414,2 -6.49414,2 0,0 13.90653,4.29749 43.73242,4.40625 29.82589,-0.10876 43.73242,-4.40625 43.73242,-4.40625 0,0 -3.56867,-0.83367 -6.49609,-2 22.98654,-9.18684 69.1384,-29.22937 84.26758,-81.5 15.12918,-52.27063 5.07387,-150.6142 -49.46289,-203.335939 L 721.375,10.242188 668.23438,19.232422 c -10e-6,0 -2.19792,5.515838 -3.38672,7.945312 -1.18881,2.429475 -3.7461,6.63086 -3.7461,6.63086 0,0 -6.05693,1.1313 -9.10742,1.125 -3.05049,0.0063 -9.10937,-1.125 -9.10937,-1.125 0,0 -2.55729,-4.201385 -3.7461,-6.63086 -1.1888,-2.429474 -3.38672,-7.945312 -3.38672,-7.945312 z M 651.99414,150.5957 c 0,0 18.43608,6.11561 38.09961,41.58203 12.05382,21.74105 16.14133,56.76975 14.8457,72.90821 -1.4025,17.46968 -10.87409,39.04503 -23.13672,53.77148 -13.48872,16.19888 -29.80859,24.72852 -29.80859,24.72852 0,0 -16.32183,-8.52964 -29.81055,-24.72852 -12.26263,-14.72645 -21.73226,-36.3018 -23.13476,-53.77148 -1.29563,-16.13846 2.78993,-51.16716 14.84375,-72.90821 19.66353,-35.46642 38.10156,-41.58203 38.10156,-41.58203 z" />
  </g>
</svg>
